<?xml version="1.0" encoding="UTF-8"?>
<svg xmlns="http://www.w3.org/2000/svg" xmlns:xlink="http://www.w3.org/1999/xlink" width="432pt" height="79pt" viewBox="0 0 432 79" version="1.1">
<defs>
<radialGradient id="radial0" gradientUnits="userSpaceOnUse" cx="0" cy="0" fx="0" fy="0" r="1" gradientTransform="matrix(47.65415,0,0,47.692229,408.529031,60.100147)">
<stop offset="0" style="stop-color:rgb(99.607843%,87.45098%,20%);stop-opacity:1;"/>
<stop offset="0.440002" style="stop-color:rgb(98.431373%,72.156863%,3.529412%);stop-opacity:1;"/>
<stop offset="0.899994" style="stop-color:rgb(93.333333%,58.823529%,5.098039%);stop-opacity:1;"/>
<stop offset="1" style="stop-color:rgb(88.235294%,47.843137%,6.27451%);stop-opacity:1;"/>
</radialGradient>
<radialGradient id="radial1" gradientUnits="userSpaceOnUse" cx="0" cy="0" fx="0" fy="0" r="1" gradientTransform="matrix(47.689163,0,0,47.727298,396.085198,12.718161)">
<stop offset="0" style="stop-color:rgb(99.607843%,87.45098%,20%);stop-opacity:1;"/>
<stop offset="0.440002" style="stop-color:rgb(98.431373%,72.156863%,3.529412%);stop-opacity:1;"/>
<stop offset="0.899994" style="stop-color:rgb(93.333333%,58.823529%,5.098039%);stop-opacity:1;"/>
<stop offset="1" style="stop-color:rgb(88.235294%,47.843137%,6.27451%);stop-opacity:1;"/>
</radialGradient>
<radialGradient id="radial2" gradientUnits="userSpaceOnUse" cx="0" cy="0" fx="0" fy="0" r="1" gradientTransform="matrix(47.670212,0,0,47.708332,361.338918,47.336576)">
<stop offset="0" style="stop-color:rgb(99.607843%,87.45098%,20%);stop-opacity:1;"/>
<stop offset="0.440002" style="stop-color:rgb(98.431373%,72.156863%,3.529412%);stop-opacity:1;"/>
<stop offset="0.899994" style="stop-color:rgb(93.333333%,58.823529%,5.098039%);stop-opacity:1;"/>
<stop offset="1" style="stop-color:rgb(88.235294%,47.843137%,6.27451%);stop-opacity:1;"/>
</radialGradient>
<radialGradient id="radial3" gradientUnits="userSpaceOnUse" cx="0" cy="0" fx="0" fy="0" r="1" gradientTransform="matrix(47.803688,0,0,47.841914,408.497455,60.254532)">
<stop offset="0" style="stop-color:rgb(99.607843%,87.45098%,20%);stop-opacity:1;"/>
<stop offset="0.440002" style="stop-color:rgb(98.431373%,72.156863%,3.529412%);stop-opacity:1;"/>
<stop offset="0.899994" style="stop-color:rgb(93.333333%,58.823529%,5.098039%);stop-opacity:1;"/>
<stop offset="1" style="stop-color:rgb(84.705882%,45.098039%,0.392157%);stop-opacity:1;"/>
</radialGradient>
</defs>
<g id="surface1">
<path style=" stroke:none;fill-rule:nonzero;fill:url(#radial0);" d="M 396.929688 12.71875 C 395.8125 12.71875 392.484375 12.71875 388.617188 17.417969 C 388.664062 17.480469 388.714844 17.539062 388.765625 17.597656 C 389.761719 16.4375 391.003906 15.246094 392.34375 14.382812 C 393.578125 13.585938 395.011719 13.050781 396.199219 12.921875 C 397.0625 12.828125 399.925781 12.863281 403.183594 12.863281 C 403.199219 12.863281 403.210938 12.871094 403.21875 12.878906 L 403.132812 12.738281 C 403.125 12.726562 403.117188 12.71875 403.101562 12.71875 Z M 396.929688 12.71875 "/>
<path style=" stroke:none;fill-rule:nonzero;fill:url(#radial1);" d="M 374.246094 12.71875 C 374.234375 12.71875 374.222656 12.722656 374.214844 12.738281 L 362.101562 33.734375 L 358.300781 40.320312 L 357.863281 41.082031 L 357.804688 41.179688 C 357.800781 41.1875 357.800781 41.203125 357.808594 41.21875 L 369.347656 61.21875 L 369.347656 61.136719 C 369.097656 60.679688 368.917969 60.324219 368.820312 60.101562 C 368.339844 59.007812 368.066406 57.496094 368.136719 56.023438 C 368.332031 52.152344 370.390625 48.332031 371.425781 46.539062 C 373.851562 42.332031 378.542969 34.199219 378.542969 34.199219 C 378.542969 34.199219 383.234375 26.066406 385.660156 21.855469 C 386.695312 20.066406 388.972656 16.371094 392.226562 14.265625 C 393.460938 13.46875 394.914062 12.949219 396.097656 12.820312 C 396.964844 12.722656 399.839844 12.71875 403.101562 12.71875 Z M 374.246094 12.71875 "/>
<path style=" stroke:none;fill-rule:nonzero;fill:url(#radial2);" d="M 357.90625 41.375 C 358.085938 41.695312 358.265625 42.007812 358.445312 42.316406 Z M 415.949219 47.238281 C 415.246094 48.199219 414.074219 49.195312 412.765625 49.867188 C 409.3125 51.632812 404.980469 51.761719 402.914062 51.761719 L 374.4375 51.761719 C 372.371094 51.761719 368.03125 51.632812 364.585938 49.867188 C 363.277344 49.195312 362.105469 48.199219 361.398438 47.238281 C 360.949219 46.625 359.804688 44.667969 358.445312 42.316406 L 361.339844 47.335938 L 372.234375 66.226562 C 372.242188 66.234375 372.253906 66.242188 372.265625 66.242188 L 405.085938 66.242188 C 405.09375 66.242188 405.109375 66.234375 405.113281 66.226562 L 419.414062 41.441406 C 417.835938 44.171875 416.453125 46.554688 415.949219 47.238281 "/>
<path style=" stroke:none;fill-rule:nonzero;fill:url(#radial3);" d="M 396.097656 12.820312 C 394.914062 12.949219 393.460938 13.46875 392.226562 14.265625 C 390.867188 15.148438 389.675781 16.304688 388.675781 17.488281 C 390.066406 19.128906 391.089844 20.8125 391.6875 21.855469 C 394.117188 26.066406 398.808594 34.199219 398.808594 34.199219 C 398.808594 34.199219 403.5 42.332031 405.929688 46.539062 C 406.960938 48.332031 409.019531 52.152344 409.210938 56.023438 C 409.285156 57.496094 409.003906 59.007812 408.527344 60.101562 C 408.195312 60.867188 406.863281 63.1875 405.320312 65.867188 L 419.542969 41.210938 C 419.542969 41.210938 419.546875 41.207031 419.546875 41.203125 L 419.546875 41.1875 C 419.546875 41.183594 419.542969 41.179688 419.542969 41.179688 L 403.132812 12.738281 C 403.125 12.726562 403.117188 12.71875 403.101562 12.71875 C 399.839844 12.71875 396.964844 12.722656 396.097656 12.820312 "/>
<path style=" stroke:none;fill-rule:nonzero;fill:rgb(0%,0%,0%);fill-opacity:1;" d="M 27.304688 27.296875 C 19.1875 27.296875 12.714844 33.984375 12.714844 42.378906 C 12.714844 51.152344 19.078125 57.222656 26.921875 57.222656 C 31.414062 57.222656 34.894531 55.609375 37.542969 52.578125 L 33.621094 48.554688 C 31.996094 50.289062 29.957031 51.234375 27.304688 51.234375 C 22.707031 51.234375 19.601562 47.382812 19.601562 42.234375 C 19.601562 37.253906 22.773438 33.28125 27.210938 33.28125 C 29.539062 33.28125 31.515625 34.152344 33.140625 35.722656 L 37.207031 31.507812 C 34.828125 28.910156 31.3125 27.296875 27.304688 27.296875 Z M 54.816406 27.296875 C 46.210938 27.296875 39.746094 34.039062 39.746094 42.378906 C 39.746094 50.828125 45.855469 57.222656 54.625 57.222656 C 63.226562 57.222656 69.695312 50.480469 69.695312 42.140625 C 69.695312 33.691406 63.578125 27.296875 54.816406 27.296875 Z M 76.679688 27.773438 L 73.855469 56.695312 L 79.835938 56.695312 L 81.175781 41.085938 C 81.445312 38.050781 81.460938 34.910156 81.460938 34.910156 L 81.605469 34.910156 C 81.605469 34.910156 82.273438 38.070312 83.136719 40.941406 L 88.015625 56.695312 L 93.710938 56.695312 L 98.589844 40.796875 C 99.457031 38.035156 100.121094 34.910156 100.121094 34.910156 L 100.21875 34.910156 C 100.21875 34.910156 100.28125 38.039062 100.550781 41.179688 L 101.84375 56.695312 L 108.207031 56.695312 L 105.382812 27.773438 L 97.011719 27.773438 L 92.609375 42.089844 C 91.90625 44.421875 91.175781 47.40625 91.175781 47.40625 C 91.175781 47.40625 90.402344 44.425781 89.644531 42.042969 L 85.195312 27.773438 Z M 116.960938 27.773438 L 114.1875 56.695312 L 120.167969 56.695312 L 121.457031 41.085938 C 121.730469 38.050781 121.792969 34.910156 121.792969 34.910156 L 121.890625 34.910156 C 121.890625 34.910156 122.601562 38.070312 123.46875 40.941406 L 128.347656 56.695312 L 134.042969 56.695312 L 138.875 40.796875 C 139.742188 38.035156 140.40625 34.910156 140.40625 34.910156 L 140.5 34.910156 C 140.5 34.910156 140.566406 38.039062 140.835938 41.179688 L 142.125 56.695312 L 148.539062 56.695312 L 145.714844 27.773438 L 137.34375 27.773438 L 132.941406 42.089844 C 132.238281 44.421875 131.503906 47.40625 131.503906 47.40625 C 131.503906 47.40625 130.734375 44.425781 129.976562 42.042969 L 125.527344 27.773438 Z M 155.425781 27.773438 L 155.425781 56.695312 L 174.230469 56.695312 L 174.230469 51.140625 L 161.742188 51.140625 L 161.742188 44.820312 L 172.316406 44.820312 L 172.316406 39.410156 L 161.742188 39.410156 L 161.742188 33.28125 L 174.039062 33.28125 L 174.039062 27.773438 Z M 181.644531 27.773438 L 181.644531 56.695312 L 187.960938 56.695312 L 187.960938 46.160156 L 189.921875 46.160156 L 196.09375 56.695312 L 203.605469 56.695312 L 196.476562 45.058594 C 200.210938 43.652344 202.3125 40.753906 202.3125 37.015625 C 202.3125 31.167969 199.015625 27.773438 190.304688 27.773438 Z M 207.574219 27.773438 L 207.574219 33.28125 L 219.25 33.28125 L 207.289062 51.90625 L 207.289062 56.695312 L 227.429688 56.695312 L 227.429688 51.140625 L 215.183594 51.140625 L 227.140625 32.515625 L 227.140625 27.773438 Z M 233.9375 27.773438 L 233.9375 56.695312 L 244.988281 56.695312 C 250.128906 56.695312 255.847656 54.375 255.847656 48.363281 C 255.847656 44.625 253.464844 42.097656 249.675781 41.613281 L 249.675781 41.5625 C 252.652344 40.640625 254.507812 38.390625 254.507812 35.195312 C 254.507812 28.914062 248.972656 27.773438 243.933594 27.773438 Z M 268.238281 27.773438 L 257.953125 56.695312 L 264.269531 56.695312 L 266.277344 50.804688 L 277.519531 50.804688 L 279.53125 56.695312 L 286.324219 56.695312 L 276.035156 27.773438 Z M 290.246094 27.773438 L 290.246094 56.695312 L 296.082031 56.695312 L 296.082031 42.953125 C 296.082031 40.351562 295.890625 37.6875 295.890625 37.6875 C 295.890625 37.6875 297.25 40.007812 298.761719 42.28125 L 308.570312 56.695312 L 314.167969 56.695312 L 314.167969 27.773438 L 308.28125 27.773438 L 308.28125 40.894531 C 308.28125 43.496094 308.472656 46.113281 308.472656 46.113281 C 308.472656 46.113281 307.121094 43.792969 305.601562 41.515625 L 296.226562 27.773438 Z M 321.105469 27.773438 L 321.105469 56.695312 L 327.371094 56.695312 L 327.371094 43.144531 L 336.605469 56.695312 L 344.355469 56.695312 L 333.734375 41.179688 L 343.351562 27.773438 L 336.078125 27.773438 L 327.371094 40.75 L 327.371094 27.773438 Z M 54.71875 33.183594 C 59.695312 33.183594 62.898438 37.136719 62.898438 42.28125 C 62.898438 47.15625 59.804688 51.332031 54.71875 51.332031 C 49.738281 51.332031 46.539062 47.382812 46.539062 42.234375 C 46.539062 37.359375 49.632812 33.183594 54.71875 33.183594 Z M 187.960938 33.183594 L 190.542969 33.183594 C 193.898438 33.183594 195.851562 34.199219 195.851562 37.015625 C 195.851562 39.722656 194.058594 40.894531 190.542969 40.894531 L 187.960938 40.894531 Z M 240.203125 33.183594 L 243.839844 33.183594 C 245.839844 33.183594 247.859375 33.816406 247.859375 36.203125 C 247.859375 38.527344 246.132812 39.457031 244.125 39.457031 L 240.203125 39.457031 Z M 271.921875 33.617188 C 271.921875 33.617188 272.460938 35.574219 273.167969 37.6875 L 275.703125 45.347656 L 268.144531 45.347656 L 270.679688 37.734375 C 271.382812 35.566406 271.921875 33.617188 271.921875 33.617188 Z M 240.203125 44.773438 L 244.84375 44.773438 C 247.65625 44.773438 249.484375 45.65625 249.484375 47.933594 C 249.484375 50.152344 248.035156 51.285156 244.84375 51.285156 L 240.203125 51.285156 Z M 240.203125 44.773438 "/>
</g>
</svg>
