<?xml version="1.0" encoding="utf-8"?>
<!-- Generator: Adobe Illustrator 13.0.2, SVG Export Plug-In . SVG Version: 6.00 Build 14948)  -->
<!DOCTYPE svg PUBLIC "-//W3C//DTD SVG 1.0//EN" "http://www.w3.org/TR/2001/REC-SVG-20010904/DTD/svg10.dtd">
<svg version="1.0" id="Layer_1" xmlns="http://www.w3.org/2000/svg" xmlns:xlink="http://www.w3.org/1999/xlink" x="0px" y="0px"
	 width="300px" height="77.4px" viewBox="0 0 300 77.4" enable-background="new 0 0 300 77.4" xml:space="preserve">
<g>
	<path fill="#F58220" d="M45.289,34.064l-3.173,17.578c-0.488,3.17-2.566,4.027-4.395,4.027H23.93l5.738-32.227
		c-5.859-2.684-11.716-4.387-16.484-4.387c-4.519,0-8.186,1.213-10.62,4.145C0.85,25.271,0,27.834,0,30.885
		c0,9.162,7.203,21.863,19.528,32.23C30.51,72.279,42.599,77.4,51.396,77.4c4.392,0,7.932-1.344,10.26-4.025
		c1.83-2.078,2.556-4.76,2.556-7.814C64.211,56.646,57.013,44.195,45.289,34.064"/>
	<path fill="#0058A9" d="M160.214,44.688c0-6.353-21.846-1.84-21.846-14.905c0-11.957,12.936-15.127,21.355-15.127
		c8.553,0,18.807,1.941,17.832,12.568h-14.279c0.107-1.582-0.38-3.9-4.891-3.9c-2.445,0-4.271,1.091-4.271,2.678
		c0,5.736,22.594,2.439,22.594,15.016c0,10.254-9.414,15.873-23.573,15.873c-9.761,0-19.413-2.805-18.431-13.555h15.135
		c-0.24,1.709,0.129,4.887,5.135,4.887C157.657,48.223,160.214,47.003,160.214,44.688 M235.046,23.926l1.35-8.176h-14.154
		l-7.213,39.92h11.964c1.846,0,3.786-0.857,4.39-4.027l1.834-9.649c1.711-8.782,5.375-11.713,11.482-11.713
		c1.346,0,2.802,0.237,3.786,0.485l2.806-15.871c-0.607-0.124-1.586-0.238-2.438-0.238c-5.742,0-10.02,2.928-13.558,9.27H235.046z
		 M201.354,39.438l2.191-12.214h7.947l2.075-11.475h-7.938l2.193-12.33h-11.473c-1.825,0-3.898,0.852-4.386,4.025l-1.468,8.305
		h-5.988l-2.07,11.475h5.986l-2.566,14.41c-0.488,2.928-0.854,5.245-0.854,7.199c0,6.475,5.363,8.057,21.355,6.965l1.959-11.359
		h-2.931C200.995,44.439,200.741,43.096,201.354,39.438 M135.806,0.732h-11.971c-1.836,0-3.899,0.855-4.393,4.03L110.29,55.67
		h11.957c1.84,0,3.904-0.857,4.395-4.031L135.806,0.732z M20.392,0c-2.199,0-4.031,1.467-4.522,3.784l-1.95,10.622h17.427
		L23.867,55.67H37.73c1.849,0,3.933-0.857,4.55-4.031l6.334-37.232h12.545c2.209,0,4.031-1.467,4.516-3.781L67.636,0H20.392z
		 M78.308,31.253h14.404c0.728-3.667-2.082-6.962-5.74-6.962C82.212,24.291,79.04,26.859,78.308,31.253 M76.834,39.438
		c-0.726,4.628,2.446,7.804,6.598,7.804c2.561,0,5.001-1.092,6.46-3.535h15.273c-4.396,9.888-14.783,13.184-24.177,13.184
		c-11.354,0-19.78-5.742-19.78-16.979c0-15.986,13.68-25.256,26.736-25.256c12.825,0,19.898,7.556,19.898,18.92
		c0,1.828-0.242,3.783-0.607,5.862H76.834z M281.202,32.841c0-3.299-1.711-5.981-5.501-5.981c-5.245,0-8.661,5.49-8.661,12.693
		c0,3.296,1.086,5.982,4.882,5.982C277.652,45.535,281.202,40.049,281.202,32.841 M300,15.75l-7.085,39.92h-14.283l0.977-5.254
		h-0.242c-4.157,4.635-8.668,6.475-13.556,6.475c-9.759,0-14.763-6.595-14.763-15.873c0-13.91,9.275-26.361,21.363-26.361
		c5.001,0,8.666,1.582,10.744,5.494h0.245c0.487-3.301,2.555-4.4,4.628-4.4H300z"/>
</g>
</svg>
