<?xml version="1.0" encoding="UTF-8"?>
<svg xmlns="http://www.w3.org/2000/svg" xmlns:xlink="http://www.w3.org/1999/xlink"
 viewBox="0 0 140 140" version="1.1">
<g id="surface1">
<path style=" stroke:none;fill-rule:evenodd;fill:rgb(100%,100%,100%);fill-opacity:1;" d="M 0 0.242188 L 192.757813 0.242188 L 192.757813 193 L 0 193 L 0 0.242188 "/>
<path style=" stroke:none;fill-rule:evenodd;fill:rgb(13.699341%,12.199402%,12.5%);fill-opacity:1;" d="M 87.933594 48.566406 C 81.945313 48.566406 8.503906 48.566406 8.503906 48.566406 L 8.503906 148.980469 L 108.917969 148.980469 L 108.917969 69.503906 C 108.894531 57.933594 99.503906 48.566406 87.933594 48.566406 "/>
<path style=" stroke:none;fill-rule:evenodd;fill:rgb(96.899414%,57.299805%,22.399902%);fill-opacity:1;" d="M 92.234375 44.261719 C 86.25 44.261719 12.808594 44.261719 12.808594 44.261719 L 12.808594 144.675781 L 113.222656 144.675781 L 113.222656 65.199219 C 113.195313 53.628906 103.808594 44.261719 92.234375 44.261719 "/>
<path style=" stroke:none;fill-rule:evenodd;fill:rgb(100%,100%,100%);fill-opacity:1;" d="M 16.058594 114.398438 L 16.058594 111.214844 L 27.082031 111.214844 L 27.082031 114.398438 L 23.125 114.398438 L 23.125 127.617188 L 20.035156 127.617188 L 20.035156 114.398438 L 16.058594 114.398438 "/>
<path style=" stroke:none;fill-rule:evenodd;fill:rgb(100%,100%,100%);fill-opacity:1;" d="M 45.753906 117.726563 L 45.753906 120.75 L 39.34375 120.75 L 39.34375 124.429688 L 46.804688 124.429688 L 46.804688 127.617188 L 36.25 127.617188 L 36.25 111.214844 L 46.617188 111.214844 L 46.617188 114.398438 L 39.34375 114.398438 L 39.34375 117.726563 L 45.753906 117.726563 "/>
<path style=" stroke:none;fill-rule:evenodd;fill:rgb(100%,100%,100%);fill-opacity:1;" d="M 59.25 114.398438 L 61.96875 114.398438 C 63.300781 114.398438 64.070313 114.890625 64.070313 116.507813 C 64.070313 117.304688 63.824219 118.570313 62.082031 118.570313 L 59.25 118.570313 Z M 56.15625 127.617188 L 59.25 127.617188 L 59.25 121.570313 L 61.632813 121.570313 C 61.988281 121.570313 63.617188 121.476563 63.75 123.445313 C 63.917969 125.953125 63.710938 126.585938 64.273438 127.617188 L 67.425781 127.617188 C 66.957031 126.773438 66.957031 126.09375 66.917969 124.007813 C 66.898438 122.8125 66.863281 120.679688 65.042969 120.023438 L 65.042969 119.976563 C 65.90625 119.601563 67.332031 118.640625 67.332031 115.875 C 67.332031 111.636719 64.199219 111.214844 62.867188 111.214844 L 56.15625 111.214844 L 56.15625 127.617188 "/>
<path style=" stroke:none;fill-rule:evenodd;fill:rgb(100%,100%,100%);fill-opacity:1;" d="M 80.210938 114.398438 L 82.925781 114.398438 C 84.257813 114.398438 85.027344 114.890625 85.027344 116.507813 C 85.027344 117.304688 84.785156 118.570313 83.039063 118.570313 L 80.210938 118.570313 Z M 77.117188 127.617188 L 80.210938 127.617188 L 80.210938 121.570313 L 82.589844 121.570313 C 82.945313 121.570313 84.578125 121.476563 84.707031 123.445313 C 84.878906 125.953125 84.671875 126.585938 85.234375 127.617188 L 88.382813 127.617188 C 87.914063 126.773438 87.914063 126.09375 87.875 124.007813 C 87.859375 122.8125 87.820313 120.679688 86 120.023438 L 86 119.976563 C 86.863281 119.601563 88.289063 118.640625 88.289063 115.875 C 88.289063 111.636719 85.160156 111.214844 83.828125 111.214844 L 77.117188 111.214844 L 77.117188 127.617188 "/>
<path style=" stroke:none;fill-rule:evenodd;fill:rgb(100%,100%,100%);fill-opacity:1;" d="M 101.261719 121.757813 L 102.984375 115.5 L 104.671875 121.757813 Z M 101.410156 111.214844 L 96.5 127.617188 L 99.761719 127.617188 L 100.585938 124.546875 L 105.347656 124.546875 L 106.191406 127.617188 L 109.472656 127.617188 L 104.542969 111.214844 L 101.410156 111.214844 "/>
<path style=" stroke:none;fill-rule:evenodd;fill:rgb(13.699341%,12.199402%,12.5%);fill-opacity:1;" d="M 127.394531 127.617188 L 118.191406 127.617188 L 118.191406 111.214844 L 121.28125 111.214844 L 121.28125 124.429688 L 127.394531 124.429688 L 127.394531 127.617188 "/>
<path style=" stroke:none;fill-rule:evenodd;fill:rgb(13.699341%,12.199402%,12.5%);fill-opacity:1;" d="M 139.652344 111.214844 L 139.652344 127.617188 L 136.5625 127.617188 L 136.5625 111.214844 L 139.652344 111.214844 "/>
<path style=" stroke:none;fill-rule:evenodd;fill:rgb(13.699341%,12.199402%,12.5%);fill-opacity:1;" d="M 153.132813 117.351563 L 153.132813 127.617188 L 150.039063 127.617188 L 150.039063 111.214844 L 153.171875 111.214844 L 158.34375 121.40625 L 158.398438 121.40625 L 158.398438 111.214844 L 161.492188 111.214844 L 161.492188 127.617188 L 158.34375 127.617188 L 153.171875 117.351563 L 153.132813 117.351563 "/>
<path style=" stroke:none;fill-rule:evenodd;fill:rgb(13.699341%,12.199402%,12.5%);fill-opacity:1;" d="M 179.996094 111.214844 L 183.859375 111.214844 L 178.589844 118.007813 L 184.253906 127.617188 L 180.390625 127.617188 L 176.453125 120.539063 L 174.972656 122.414063 L 174.972656 127.617188 L 171.878906 127.617188 L 171.878906 111.214844 L 174.972656 111.214844 L 174.972656 117.890625 L 179.996094 111.214844 "/>
<path style=" stroke:none;fill-rule:evenodd;fill:rgb(13.699341%,12.199402%,12.5%);fill-opacity:1;" d="M 118.996094 130.507813 L 120.015625 130.507813 C 120.777344 130.507813 121.128906 130.851563 121.128906 131.632813 C 121.128906 132.402344 120.859375 132.894531 120.015625 132.894531 L 118.996094 132.894531 Z M 118.191406 129.789063 L 118.191406 136.140625 L 118.996094 136.140625 L 118.996094 133.609375 L 120.085938 133.609375 C 121.855469 133.609375 121.945313 132.222656 121.945313 131.613281 C 121.945313 129.933594 120.785156 129.789063 120.140625 129.789063 L 118.191406 129.789063 "/>
<path style=" stroke:none;fill-rule:evenodd;fill:rgb(13.699341%,12.199402%,12.5%);fill-opacity:1;" d="M 129.074219 130.507813 L 130.210938 130.507813 C 130.890625 130.507813 131.316406 130.761719 131.316406 131.585938 C 131.316406 132.566406 130.664063 132.730469 130.308594 132.730469 L 129.074219 132.730469 Z M 128.269531 136.140625 L 129.074219 136.140625 L 129.074219 133.445313 L 130.238281 133.445313 C 131.21875 133.445313 131.199219 134.199219 131.207031 134.796875 C 131.21875 135.632813 131.21875 135.839844 131.398438 136.140625 L 132.214844 136.140625 C 132.03125 135.769531 132.042969 135.503906 132.023438 134.625 C 132.007813 133.964844 131.949219 133.292969 131.160156 133.109375 L 131.160156 133.054688 C 131.714844 132.910156 132.160156 132.382813 132.160156 131.558594 C 132.160156 129.863281 130.90625 129.789063 130.347656 129.789063 L 128.269531 129.789063 L 128.269531 136.140625 "/>
<path style=" stroke:none;fill-rule:evenodd;fill:rgb(13.699341%,12.199402%,12.5%);fill-opacity:1;" d="M 139.136719 132.964844 C 139.136719 131.859375 139.425781 130.316406 140.667969 130.316406 C 141.910156 130.316406 142.199219 131.859375 142.199219 132.964844 C 142.199219 133.972656 141.964844 135.613281 140.667969 135.613281 C 139.371094 135.613281 139.136719 133.972656 139.136719 132.964844 Z M 138.289063 132.964844 C 138.289063 136.265625 140.285156 136.332031 140.667969 136.332031 C 141.050781 136.332031 143.046875 136.265625 143.046875 132.964844 C 143.046875 131.167969 142.355469 129.601563 140.667969 129.601563 C 138.980469 129.601563 138.289063 131.167969 138.289063 132.964844 "/>
<path style=" stroke:none;fill-rule:evenodd;fill:rgb(13.699341%,12.199402%,12.5%);fill-opacity:1;" d="M 150.292969 130.507813 L 151.445313 130.507813 C 152.242188 130.507813 152.378906 131.058594 152.378906 131.496094 C 152.378906 132.132813 152.089844 132.484375 151.417969 132.484375 L 150.292969 132.484375 Z M 149.484375 129.789063 L 149.484375 136.140625 L 151.515625 136.140625 C 152.824219 136.140625 153.402344 135.496094 153.402344 134.371094 C 153.402344 133.238281 152.714844 132.882813 152.261719 132.800781 L 152.261719 132.757813 C 152.867188 132.601563 153.203125 132.03125 153.203125 131.40625 C 153.203125 130.453125 152.6875 129.789063 151.589844 129.789063 Z M 150.292969 133.199219 L 151.460938 133.199219 C 152.234375 133.199219 152.585938 133.519531 152.585938 134.296875 C 152.585938 135.324219 151.941406 135.421875 151.460938 135.421875 L 150.292969 135.421875 L 150.292969 133.199219 "/>
<path style=" stroke:none;fill-rule:evenodd;fill:rgb(13.699341%,12.199402%,12.5%);fill-opacity:1;" d="M 163.21875 136.140625 L 159.960938 136.140625 L 159.960938 129.789063 L 160.769531 129.789063 L 160.769531 135.421875 L 163.21875 135.421875 L 163.21875 136.140625 "/>
<path style=" stroke:none;fill-rule:evenodd;fill:rgb(13.699341%,12.199402%,12.5%);fill-opacity:1;" d="M 172.53125 132.503906 L 172.53125 133.21875 L 170.003906 133.21875 L 170.003906 135.421875 L 172.867188 135.421875 L 172.867188 136.140625 L 169.195313 136.140625 L 169.195313 129.789063 L 172.785156 129.789063 L 172.785156 130.507813 L 170.003906 130.507813 L 170.003906 132.503906 L 172.53125 132.503906 "/>
<path style=" stroke:none;fill-rule:evenodd;fill:rgb(13.699341%,12.199402%,12.5%);fill-opacity:1;" d="M 179.863281 131.1875 L 179.835938 131.1875 L 179.863281 131.53125 L 179.863281 136.140625 L 179.054688 136.140625 L 179.054688 129.789063 L 180.179688 129.789063 L 181.613281 134.84375 L 183.046875 129.789063 L 184.171875 129.789063 L 184.171875 136.140625 L 183.363281 136.140625 L 183.363281 131.53125 L 183.390625 131.1875 L 183.363281 131.1875 L 181.949219 136.140625 L 181.277344 136.140625 L 179.863281 131.1875 "/>
<path style=" stroke:none;fill-rule:evenodd;fill:rgb(13.699341%,12.199402%,12.5%);fill-opacity:1;" d="M 118.996094 142.601563 C 118.949219 143.238281 119.238281 144.089844 120.289063 144.089844 C 120.980469 144.089844 121.398438 143.65625 121.398438 142.910156 C 121.398438 142.078125 120.828125 141.894531 120.492188 141.796875 C 120.265625 141.722656 120.039063 141.667969 119.8125 141.605469 C 119.128906 141.414063 118.351563 141.140625 118.351563 139.898438 C 118.351563 138.71875 119.140625 138.078125 120.253906 138.078125 C 121.695313 138.078125 122.089844 139.183594 122.113281 139.917969 L 121.308594 139.917969 C 121.289063 139.4375 121.035156 138.792969 120.238281 138.792969 C 119.601563 138.792969 119.195313 139.210938 119.195313 139.855469 C 119.195313 140.589844 119.71875 140.761719 120.347656 140.914063 C 121.207031 141.132813 122.242188 141.386719 122.242188 142.894531 C 122.242188 144.78125 120.671875 144.804688 120.253906 144.804688 C 119.820313 144.804688 118.179688 144.707031 118.1875 142.601563 L 118.996094 142.601563 "/>
<path style=" stroke:none;fill-rule:evenodd;fill:rgb(13.699341%,12.199402%,12.5%);fill-opacity:1;" d="M 129.496094 141.441406 C 129.496094 140.335938 129.789063 138.792969 131.03125 138.792969 C 132.273438 138.792969 132.5625 140.335938 132.5625 141.441406 C 132.5625 142.449219 132.328125 144.089844 131.03125 144.089844 C 129.734375 144.089844 129.496094 142.449219 129.496094 141.441406 Z M 128.65625 141.441406 C 128.65625 144.742188 130.648438 144.804688 131.03125 144.804688 C 131.410156 144.804688 133.40625 144.742188 133.40625 141.441406 C 133.40625 139.644531 132.71875 138.078125 131.03125 138.078125 C 129.34375 138.078125 128.65625 139.644531 128.65625 141.441406 "/>
<path style=" stroke:none;fill-rule:evenodd;fill:rgb(13.699341%,12.199402%,12.5%);fill-opacity:1;" d="M 143.4375 144.617188 L 140.183594 144.617188 L 140.183594 138.265625 L 140.992188 138.265625 L 140.992188 143.898438 L 143.4375 143.898438 L 143.4375 144.617188 "/>
<path style=" stroke:none;fill-rule:evenodd;fill:rgb(13.699341%,12.199402%,12.5%);fill-opacity:1;" d="M 152.382813 138.265625 L 153.246094 138.265625 L 151.566406 144.617188 L 150.632813 144.617188 L 148.945313 138.265625 L 149.808594 138.265625 L 151.105469 143.519531 L 152.382813 138.265625 "/>
<path style=" stroke:none;fill-rule:evenodd;fill:rgb(13.699341%,12.199402%,12.5%);fill-opacity:1;" d="M 162.914063 140.980469 L 162.914063 141.695313 L 160.382813 141.695313 L 160.382813 143.898438 L 163.25 143.898438 L 163.25 144.617188 L 159.574219 144.617188 L 159.574219 138.265625 L 163.167969 138.265625 L 163.167969 138.984375 L 160.382813 138.984375 L 160.382813 140.980469 L 162.914063 140.980469 "/>
<path style=" stroke:none;fill-rule:evenodd;fill:rgb(13.699341%,12.199402%,12.5%);fill-opacity:1;" d="M 170.578125 138.984375 L 171.714844 138.984375 C 172.394531 138.984375 172.820313 139.238281 172.820313 140.0625 C 172.820313 141.042969 172.164063 141.207031 171.8125 141.207031 L 170.578125 141.207031 Z M 169.769531 144.617188 L 170.578125 144.617188 L 170.578125 141.921875 L 171.738281 141.921875 C 172.71875 141.921875 172.699219 142.675781 172.710938 143.273438 C 172.71875 144.109375 172.71875 144.316406 172.902344 144.617188 L 173.71875 144.617188 C 173.535156 144.242188 173.546875 143.980469 173.527344 143.101563 C 173.507813 142.4375 173.453125 141.769531 172.664063 141.585938 L 172.664063 141.53125 C 173.21875 141.386719 173.660156 140.859375 173.660156 140.035156 C 173.660156 138.339844 172.410156 138.265625 171.847656 138.265625 L 169.769531 138.265625 L 169.769531 144.617188 "/>
<path style=" stroke:none;fill-rule:evenodd;fill:rgb(13.699341%,12.199402%,12.5%);fill-opacity:1;" d="M 180.9375 142.601563 C 180.890625 143.238281 181.183594 144.089844 182.234375 144.089844 C 182.921875 144.089844 183.339844 143.65625 183.339844 142.910156 C 183.339844 142.078125 182.769531 141.894531 182.433594 141.796875 C 182.207031 141.722656 181.980469 141.667969 181.753906 141.605469 C 181.074219 141.414063 180.292969 141.140625 180.292969 139.898438 C 180.292969 138.71875 181.082031 138.078125 182.199219 138.078125 C 183.640625 138.078125 184.03125 139.183594 184.058594 139.917969 L 183.25 139.917969 C 183.230469 139.4375 182.976563 138.792969 182.179688 138.792969 C 181.546875 138.792969 181.136719 139.210938 181.136719 139.855469 C 181.136719 140.589844 181.664063 140.761719 182.289063 140.914063 C 183.148438 141.132813 184.183594 141.386719 184.183594 142.894531 C 184.183594 144.78125 182.613281 144.804688 182.199219 144.804688 C 181.761719 144.804688 180.121094 144.707031 180.128906 142.601563 L 180.9375 142.601563 "/>
</g>
</svg>
